<?xml version="1.0" encoding="utf-8"?>
<!-- Generator: Adobe Illustrator 18.0.0, SVG Export Plug-In . SVG Version: 6.00 Build 0)  -->
<!DOCTYPE svg PUBLIC "-//W3C//DTD SVG 1.1//EN" "http://www.w3.org/Graphics/SVG/1.1/DTD/svg11.dtd">
<svg version="1.1" id="Layer_1" xmlns="http://www.w3.org/2000/svg" xmlns:xlink="http://www.w3.org/1999/xlink" x="0px" y="0px"
	 viewBox="0 0 595.3 595.3" enable-background="new 0 0 595.3 595.3" xml:space="preserve">
<path fill="none" d="M135.2,403.3c-1.5-1.5-2.9-3-4.3-4.5C132.4,400.2,133.8,401.7,135.2,403.3z"/>
<path fill="#3F4C5C" d="M390.4,131v196.4l-208.6,0v0C226.1,119.5,390.4,131,390.4,131z"/>
<path fill="#FFB636" d="M505.2,232.5c0,0-4,18.6-16.6,39.3c-15.9,26.1-45.5,55.7-98.1,55.8l-208.6,0c-33.9,0-57.1,0-57.1,0
	c-11.9,0-22.9,3.6-32,9.8c-15.1,10.3-25.1,27.6-25.1,47.3c0,5.9,0.9,11.6,2.6,16.9c7.9-8.5,19.2-13.8,31.7-13.8
	c11.1,0,21.3,4.2,29,11.1c1.5,1.4,3,2.9,4.3,4.5h300.3c0.1-0.1,0.2-0.2,0.4-0.4c0.2-0.1,0.3-0.3,0.5-0.5
	C514.2,324.3,505.8,238,505.2,232.5z M115.5,369.5c-5.1,0-9.3-4.2-9.3-9.3c0-5.1,4.2-9.3,9.3-9.3c5.1,0,9.3,4.2,9.3,9.3
	C124.8,365.3,120.7,369.5,115.5,369.5z M163.3,384.3h-13.4c-1.5,0-2.7-1.2-2.7-2.7c0-1.5,1.2-2.7,2.7-2.7h13.4
	c1.5,0,2.7,1.2,2.7,2.7C166,383.1,164.8,384.3,163.3,384.3z M163.3,375.2h-13.4c-1.5,0-2.7-1.2-2.7-2.7c0-1.5,1.2-2.7,2.7-2.7h13.4
	c1.5,0,2.7,1.2,2.7,2.7C166,374,164.8,375.2,163.3,375.2z M163.3,366h-13.4c-1.5,0-2.7-1.2-2.7-2.7c0-1.5,1.2-2.7,2.7-2.7h13.4
	c1.5,0,2.7,1.2,2.7,2.7C166,364.8,164.8,366,163.3,366z M163.3,356.9h-13.4c-1.5,0-2.7-1.2-2.7-2.7c0-1.5,1.2-2.7,2.7-2.7h13.4
	c1.5,0,2.7,1.2,2.7,2.7C166,355.6,164.8,356.9,163.3,356.9z M163.3,347.7h-13.4c-1.5,0-2.7-1.2-2.7-2.7c0-1.5,1.2-2.7,2.7-2.7h13.4
	c1.5,0,2.7,1.2,2.7,2.7C166,346.5,164.8,347.7,163.3,347.7z M423.5,384.3h-13.4c-1.5,0-2.7-1.2-2.7-2.7c0-1.5,1.2-2.7,2.7-2.7h13.4
	c1.5,0,2.7,1.2,2.7,2.7C426.1,383.1,424.9,384.3,423.5,384.3z M423.5,375.2h-13.4c-1.5,0-2.7-1.2-2.7-2.7c0-1.5,1.2-2.7,2.7-2.7
	h13.4c1.5,0,2.7,1.2,2.7,2.7C426.1,374,424.9,375.2,423.5,375.2z M423.5,366h-13.4c-1.5,0-2.7-1.2-2.7-2.7c0-1.5,1.2-2.7,2.7-2.7
	h13.4c1.5,0,2.7,1.2,2.7,2.7C426.1,364.8,424.9,366,423.5,366z M423.5,356.9h-13.4c-1.5,0-2.7-1.2-2.7-2.7c0-1.5,1.2-2.7,2.7-2.7
	h13.4c1.5,0,2.7,1.2,2.7,2.7C426.1,355.6,424.9,356.9,423.5,356.9z M423.5,347.7h-13.4c-1.5,0-2.7-1.2-2.7-2.7
	c0-1.5,1.2-2.7,2.7-2.7h13.4c1.5,0,2.7,1.2,2.7,2.7C426.1,346.5,424.9,347.7,423.5,347.7z"/>
<path fill="none" d="M124.8,360.2c0,5.1-4.2,9.3-9.3,9.3c-5.1,0-9.3-4.2-9.3-9.3c0-5.1,4.2-9.3,9.3-9.3
	C120.7,350.9,124.8,355,124.8,360.2z"/>
<path fill="none" d="M147.2,381.6c0-1.5,1.2-2.7,2.7-2.7h13.4c1.5,0,2.7,1.2,2.7,2.7c0,1.5-1.2,2.7-2.7,2.7h-13.4
	C148.4,384.3,147.2,383.1,147.2,381.6z"/>
<path fill="none" d="M147.2,372.5c0-1.5,1.2-2.7,2.7-2.7h13.4c1.5,0,2.7,1.2,2.7,2.7c0,1.5-1.2,2.7-2.7,2.7h-13.4
	C148.4,375.2,147.2,374,147.2,372.5z"/>
<path fill="none" d="M147.2,363.3c0-1.5,1.2-2.7,2.7-2.7h13.4c1.5,0,2.7,1.2,2.7,2.7c0,1.5-1.2,2.7-2.7,2.7h-13.4
	C148.4,366,147.2,364.8,147.2,363.3z"/>
<path fill="none" d="M147.2,354.1c0-1.5,1.2-2.7,2.7-2.7h13.4c1.5,0,2.7,1.2,2.7,2.7c0,1.5-1.2,2.7-2.7,2.7h-13.4
	C148.4,356.9,147.2,355.6,147.2,354.1z"/>
<path fill="none" d="M147.2,345c0-1.5,1.2-2.7,2.7-2.7h13.4c1.5,0,2.7,1.2,2.7,2.7c0,1.5-1.2,2.7-2.7,2.7h-13.4
	C148.4,347.7,147.2,346.5,147.2,345z"/>
<path fill="none" d="M407.4,381.6c0-1.5,1.2-2.7,2.7-2.7h13.4c1.5,0,2.7,1.2,2.7,2.7c0,1.5-1.2,2.7-2.7,2.7h-13.4
	C408.6,384.3,407.4,383.1,407.4,381.6z"/>
<path fill="none" d="M407.4,372.5c0-1.5,1.2-2.7,2.7-2.7h13.4c1.5,0,2.7,1.2,2.7,2.7c0,1.5-1.2,2.7-2.7,2.7h-13.4
	C408.6,375.2,407.4,374,407.4,372.5z"/>
<path fill="none" d="M407.4,363.3c0-1.5,1.2-2.7,2.7-2.7h13.4c1.5,0,2.7,1.2,2.7,2.7c0,1.5-1.2,2.7-2.7,2.7h-13.4
	C408.6,366,407.4,364.8,407.4,363.3z"/>
<path fill="none" d="M407.4,354.1c0-1.5,1.2-2.7,2.7-2.7h13.4c1.5,0,2.7,1.2,2.7,2.7c0,1.5-1.2,2.7-2.7,2.7h-13.4
	C408.6,356.9,407.4,355.6,407.4,354.1z"/>
<path fill="none" d="M407.4,345c0-1.5,1.2-2.7,2.7-2.7h13.4c1.5,0,2.7,1.2,2.7,2.7c0,1.5-1.2,2.7-2.7,2.7h-13.4
	C408.6,347.7,407.4,346.5,407.4,345z"/>
<path fill="#3F4C5C" d="M435.4,403.3c-0.5,0.5-1,1-1.5,1.5c-37.1,36.6-90,59.5-148.6,59.5c-45.8,0-88.1-14-122.1-37.6
	c-10-7-19.4-14.8-27.9-23.3c-0.1-0.1-0.1-0.1-0.2-0.2H435.4z"/>
<path fill="#FAFFFF" d="M124.8,360.2c0,5.1-4.2,9.3-9.3,9.3c-5.1,0-9.3-4.2-9.3-9.3c0-5.1,4.2-9.3,9.3-9.3
	C120.7,350.9,124.8,355,124.8,360.2z"/>
<path fill="#FAFFFF" d="M166,345c0,1.5-1.2,2.7-2.7,2.7h-13.4c-1.5,0-2.7-1.2-2.7-2.7c0-1.5,1.2-2.7,2.7-2.7h13.4
	C164.8,342.3,166,343.5,166,345z"/>
<path fill="#FAFFFF" d="M166,354.1c0,1.5-1.2,2.7-2.7,2.7h-13.4c-1.5,0-2.7-1.2-2.7-2.7c0-1.5,1.2-2.7,2.7-2.7h13.4
	C164.8,351.4,166,352.6,166,354.1z"/>
<path fill="#FAFFFF" d="M166,363.3c0,1.5-1.2,2.7-2.7,2.7h-13.4c-1.5,0-2.7-1.2-2.7-2.7c0-1.5,1.2-2.7,2.7-2.7h13.4
	C164.8,360.6,166,361.8,166,363.3z"/>
<path fill="#FAFFFF" d="M166,372.5c0,1.5-1.2,2.7-2.7,2.7h-13.4c-1.5,0-2.7-1.2-2.7-2.7c0-1.5,1.2-2.7,2.7-2.7h13.4
	C164.8,369.8,166,371,166,372.5z"/>
<path fill="#FAFFFF" d="M166,381.6c0,1.5-1.2,2.7-2.7,2.7h-13.4c-1.5,0-2.7-1.2-2.7-2.7c0-1.5,1.2-2.7,2.7-2.7h13.4
	C164.8,378.9,166,380.1,166,381.6z"/>
<path fill="#FAFFFF" d="M426.1,345c0,1.5-1.2,2.7-2.7,2.7h-13.4c-1.5,0-2.7-1.2-2.7-2.7c0-1.5,1.2-2.7,2.7-2.7h13.4
	C424.9,342.3,426.1,343.5,426.1,345z"/>
<path fill="#FAFFFF" d="M426.1,354.1c0,1.5-1.2,2.7-2.7,2.7h-13.4c-1.5,0-2.7-1.2-2.7-2.7c0-1.5,1.2-2.7,2.7-2.7h13.4
	C424.9,351.4,426.1,352.6,426.1,354.1z"/>
<path fill="#FAFFFF" d="M426.1,363.3c0,1.5-1.2,2.7-2.7,2.7h-13.4c-1.5,0-2.7-1.2-2.7-2.7c0-1.5,1.2-2.7,2.7-2.7h13.4
	C424.9,360.6,426.1,361.8,426.1,363.3z"/>
<path fill="#FAFFFF" d="M426.1,372.5c0,1.5-1.2,2.7-2.7,2.7h-13.4c-1.5,0-2.7-1.2-2.7-2.7c0-1.5,1.2-2.7,2.7-2.7h13.4
	C424.9,369.8,426.1,371,426.1,372.5z"/>
<path fill="#FAFFFF" d="M426.1,381.6c0,1.5-1.2,2.7-2.7,2.7h-13.4c-1.5,0-2.7-1.2-2.7-2.7c0-1.5,1.2-2.7,2.7-2.7h13.4
	C424.9,378.9,426.1,380.1,426.1,381.6z"/>
<g>
	<path fill="#FFFFFF" d="M200.6,343.4c3,0.1,5.6,0.4,7.9,0.9c2.3,0.5,4.2,1.3,5.7,2.4c1.5,1.1,2.7,2.5,3.4,4.2
		c0.8,1.7,1.1,3.8,1.1,6.2v27.3h-13.3v-20c0-3.1,0-5.3-0.1-6.7c-0.1-1.3-0.2-2.2-0.3-2.5c-0.6-2.3-1.3-4-2.1-5
		c-0.8-1-1.6-1.7-2.4-2.1c-0.8,0.4-1.6,1.1-2.4,2.1s-1.4,2.6-2,4.9c-0.1,0.3-0.2,1.2-0.3,2.5c-0.1,1.3-0.1,3.5-0.1,6.7v20h-13.3v-20
		c0-3.1,0-5.3-0.1-6.7c-0.1-1.3-0.2-2.2-0.3-2.5c-0.3-1.2-0.6-2.2-1-2.9c-0.3-0.8-0.7-1.4-1.1-1.9c-0.4-0.5-0.8-0.9-1.2-1.2
		c-0.4-0.3-0.8-0.6-1.2-0.8v-4.8c2.4,0,4.6,0.2,6.5,0.5c1.9,0.3,3.7,0.8,5.1,1.5C192.1,344.3,195.9,343.6,200.6,343.4z"/>
	<path fill="#FFFFFF" d="M258.4,384.5c-3-0.1-5.6-0.4-7.9-0.9c-2.3-0.5-4.2-1.3-5.7-2.4c-1.5-1.1-2.7-2.5-3.4-4.1
		c-0.8-1.7-1.1-3.7-1.1-6.2V357c0-2.4,0.4-4.5,1.1-6.2c0.8-1.7,1.9-3.1,3.4-4.2c1.5-1.1,3.4-1.9,5.7-2.4c2.3-0.5,4.9-0.8,7.9-0.9
		c3,0.1,5.6,0.4,7.9,0.9c2.3,0.5,4.2,1.3,5.7,2.4c1.5,1.1,2.7,2.5,3.4,4.2c0.8,1.7,1.1,3.8,1.1,6.2v13.8c0,2.5-0.4,4.5-1.1,6.2
		c-0.8,1.7-1.9,3.1-3.4,4.1c-1.5,1.1-3.4,1.9-5.7,2.4C264,384.1,261.4,384.4,258.4,384.5z M254,355.2c-0.2,0.6-0.4,3.1-0.4,7.5v1.7
		c0,1.5,0,2.8,0,3.8c0,1,0.1,1.8,0.1,2.4c0,0.6,0.1,1.1,0.1,1.4c0,0.3,0.1,0.6,0.1,0.7c0.6,2.3,1.3,4,2,4.9s1.5,1.7,2.4,2.1
		c0.8-0.4,1.6-1.1,2.4-2.1c0.8-1,1.5-2.6,2.1-5v-0.2c0-0.4,0.1-1.4,0.2-2.9c0.1-1.5,0.2-3.2,0.2-5.1v-1.7c0-2.7,0-4.6-0.1-5.6
		c-0.1-1-0.2-1.7-0.3-2c-0.3-1.1-0.6-2.1-1-2.9c-0.3-0.8-0.7-1.4-1.1-2c-0.4-0.5-0.8-0.9-1.2-1.3c-0.4-0.3-0.8-0.6-1.2-0.9
		c-0.8,0.4-1.6,1.1-2.4,2.1S254.5,352.9,254,355.2z"/>
	<path fill="#FFFFFF" d="M316.2,343.6h18.2v40.7h-13.3v-16.8c-2.2,0.3-4.7,0.4-7.7,0.4h-2.1v16.3H298V357c0-2.4,0.4-4.5,1.1-6.1
		c0.8-1.7,1.9-3,3.4-4.1c1.5-1.1,3.4-1.8,5.7-2.3C310.6,344,313.2,343.7,316.2,343.6z M311.3,364.4v0.4c1.1-0.2,2.1-0.5,3-0.7
		c0.9-0.2,1.6-0.5,2.1-0.8c0.6-0.3,1.2-0.7,1.7-1c0.5-0.3,1-0.7,1.4-1.2c0.4-0.4,0.7-1,1-1.6c0.2-0.6,0.3-1.4,0.3-2.3v-8.7h-4.7
		c-0.8,0.4-1.6,1.1-2.4,2c-0.7,0.9-1.4,2.5-2,4.8c-0.1,0.3-0.2,1.2-0.3,2.5C311.4,359,311.3,361.3,311.3,364.4z"/>
	<path fill="#FFFFFF" d="M360.7,384.3V348h-4.9v-4.4H374v19.9l0.4-0.1c1-0.2,1.9-0.5,2.7-0.7c0.8-0.2,1.5-0.5,2.1-0.8
		c1.2-0.7,2.1-1.5,2.8-2.3c0.7-0.9,1.3-2.3,1.8-4.3v-11.7h13.3v40.7h-13.3v-18c-2.2,0.3-4.7,0.4-7.7,0.4H374v17.6H360.7z"/>
</g>
<line fill="none" x1="446.6" y1="403.3" x2="435.4" y2="403.3"/>
<path fill="#FFB636" d="M313.8,306.6C313.8,306.6,313.8,306.6,313.8,306.6c-0.2,0-0.3-0.1-0.4-0.2
	C313.6,306.4,313.7,306.5,313.8,306.6z"/>
<path fill="#FFB636" d="M313.8,306.6C313.8,306.6,313.8,306.6,313.8,306.6c-0.2,0-0.3-0.1-0.4-0.2
	C313.6,306.4,313.7,306.5,313.8,306.6z"/>
<path fill="#FFB636" d="M336,214.6c0-0.2-0.1-0.3-0.2-0.4h0.1C336,214.4,336,214.5,336,214.6z"/>
<path fill="#FFB636" d="M368.3,240.3c0,24.7-10.9,46.9-28.1,62c-8.7,7.7-19,13.6-30.4,17v0.2h-0.3c0,0,0-0.1,0-0.1
	c0.1-0.2,0.2-0.4,0.2-0.6c1.4-3.6,2.5-7.1,3.3-10.5c0,0,0,0,0-0.1c2-7.8,2.7-15.2,2.6-21.9c-0.3-23.5-10.5-39.9-14-44.7
	c-0.7-1-1.2-1.5-1.2-1.5v0c-0.7,0.6-1.6,1.2-2.5,1.7c-8.1,4.2-17.3,4.1-17.3,4.1s-10.2,5.9-14.4,9.7l-0.1,2.9c0,0-5.6,7.4-14.4,2
	c0,0-6,0.5-5.3-7c0,0-4-6.5,1.8-11.7c0,0,10.1-7.6,13.4-19.4c0,0,0.7-2.6,0.5-7.4c-0.2-4.7,4-6,4-6s-10.4,1.5-6.8-6.1
	c0,0-0.6,5.5,5.1,3.5c0,0,2.1-1,3.4-3.9c1.3-2.9,2.7-3,2.7-3s-2.6,0.2-3.5-2.4c0,0,3.2,1.5,5-1c0,0-3.2-8.9,3.4-16.3
	c0,0,0.7,7.8,10.7,14.4c-0.7-0.8-8.5-11.3,0.6-18.5c0,0,1.7,6.5,8.1,11c6.4,4.5,10.7,16.9,10.7,16.9s1.7-11.8-5.8-20.4
	c0,0,26,4,35.1,32.8c0.1,0.1,0.1,0.3,0.2,0.4c0-0.1,0-0.2,0-0.4c-0.1-2.6-1.1-16.2-12.3-29.2c0,0,23.1,8,28.4,38.6
	c0,0,2.7-0.7,0-20.9c0,0,17.8,17,10.2,41.5c0,0,1.6,0.6,6.4-10.7c0,0,0.1,0.3,0.2,0.8c0,0,0,0,0,0
	C368.3,237.3,368.3,238.8,368.3,240.3z"/>
<path fill="#FCB535" stroke="#3F4C5C" stroke-width="0.5" stroke-miterlimit="10" d="M335.1,291.8c0,0,2.6,3.7,5.2,10.5
	c-8.7,7.7-19,13.6-30.4,17v0.2h-0.3c0,0,0-0.1,0-0.1c-7.6,2.3-15.6,3.5-23.9,3.5c-4.8,0-9.5-0.4-14.1-1.2c-1-0.4-2-0.7-3-1.2
	c8.8-10.7,18.2-15.1,18.2-15.1s11.4-8,8.3-28.2c-2.1-13.2,3-27.6,6.7-35.8c1.9-4.2,3.4-6.8,3.4-6.8c3.4,2.2,5.2,8.3,5.2,8.3l3.4-8.3
	c-0.5,1.5,1.4,9.7,1.4,9.7c7.4-0.2,18.9,4.3,18.9,4.3c2.3,8.3,13.5,9.6,13.5,9.6c3.1,5.8,0,11.7,0,11.7
	C326.7,277.5,335.1,291.8,335.1,291.8z"/>
</svg>
