<?xml version="1.0" encoding="utf-8"?>
<!-- Generator: Adobe Illustrator 18.0.0, SVG Export Plug-In . SVG Version: 6.00 Build 0)  -->
<!DOCTYPE svg PUBLIC "-//W3C//DTD SVG 1.1//EN" "http://www.w3.org/Graphics/SVG/1.1/DTD/svg11.dtd">
<svg version="1.1" id="Layer_1" xmlns="http://www.w3.org/2000/svg" xmlns:xlink="http://www.w3.org/1999/xlink" x="0px" y="0px"
	 viewBox="0 0 595.3 595.3" enable-background="new 0 0 595.3 595.3" xml:space="preserve">
<g>
	<path fill="#3F4C5C" d="M135.2,403.3c-1.5-1.5-2.9-3-4.3-4.5C132.4,400.2,133.8,401.7,135.2,403.3z"/>
	<path fill="#3F4C5C" d="M263.1,357.2c-0.1-1-0.2-1.7-0.3-2c-0.3-1.1-0.6-2.1-1-2.9c-0.3-0.8-0.7-1.4-1.1-2c-0.4-0.5-0.8-1-1.2-1.3
		c-0.4-0.3-0.8-0.6-1.2-0.9c-0.8,0.4-1.6,1.1-2.4,2.1c-0.7,1-1.4,2.6-2,4.9c-0.3,0.6-0.4,3.1-0.5,7.5v1.7c0,1.5,0,2.8,0,3.8
		c0,1,0.1,1.8,0.1,2.4c0.1,0.6,0.1,1.1,0.2,1.4c0,0.3,0.1,0.6,0.2,0.7c0.6,2.3,1.3,4,2,4.9c0.7,1,1.5,1.7,2.4,2.1
		c0.8-0.4,1.6-1.1,2.4-2.1c0.8-1,1.5-2.6,2.1-5v-0.2c0-0.4,0.1-1.3,0.2-2.9c0.1-1.5,0.2-3.2,0.2-5.1v-1.7
		C263.3,360.1,263.2,358.2,263.1,357.2z M263.1,357.2c-0.1-1-0.2-1.7-0.3-2c-0.3-1.1-0.6-2.1-1-2.9c-0.3-0.8-0.7-1.4-1.1-2
		c-0.4-0.5-0.8-1-1.2-1.3c-0.4-0.3-0.8-0.6-1.2-0.9c-0.8,0.4-1.6,1.1-2.4,2.1c-0.7,1-1.4,2.6-2,4.9c-0.3,0.6-0.4,3.1-0.5,7.5v1.7
		c0,1.5,0,2.8,0,3.8c0,1,0.1,1.8,0.1,2.4c0.1,0.6,0.1,1.1,0.2,1.4c0,0.3,0.1,0.6,0.2,0.7c0.6,2.3,1.3,4,2,4.9c0.7,1,1.5,1.7,2.4,2.1
		c0.8-0.4,1.6-1.1,2.4-2.1c0.8-1,1.5-2.6,2.1-5v-0.2c0-0.4,0.1-1.3,0.2-2.9c0.1-1.5,0.2-3.2,0.2-5.1v-1.7
		C263.3,360.1,263.2,358.2,263.1,357.2z M263.1,357.2c-0.1-1-0.2-1.7-0.3-2c-0.3-1.1-0.6-2.1-1-2.9c-0.3-0.8-0.7-1.4-1.1-2
		c-0.4-0.5-0.8-1-1.2-1.3c-0.4-0.3-0.8-0.6-1.2-0.9c-0.8,0.4-1.6,1.1-2.4,2.1c-0.7,1-1.4,2.6-2,4.9c-0.3,0.6-0.4,3.1-0.5,7.5v1.7
		c0,1.5,0,2.8,0,3.8c0,1,0.1,1.8,0.1,2.4c0.1,0.6,0.1,1.1,0.2,1.4c0,0.3,0.1,0.6,0.2,0.7c0.6,2.3,1.3,4,2,4.9c0.7,1,1.5,1.7,2.4,2.1
		c0.8-0.4,1.6-1.1,2.4-2.1c0.8-1,1.5-2.6,2.1-5v-0.2c0-0.4,0.1-1.3,0.2-2.9c0.1-1.5,0.2-3.2,0.2-5.1v-1.7
		C263.3,360.1,263.2,358.2,263.1,357.2z M316.1,348.4c-0.8,0.4-1.6,1.1-2.4,2c-0.7,0.9-1.4,2.5-2,4.8c-0.1,0.3-0.2,1.2-0.3,2.5
		c-0.1,1.3-0.1,3.5-0.1,6.7v0.4c1.1-0.3,2.1-0.5,3-0.7c0.9-0.3,1.6-0.5,2.1-0.8c0.6-0.4,1.2-0.7,1.7-1c0.5-0.3,1-0.7,1.5-1.2
		c0.4-0.4,0.7-1,1-1.6s0.3-1.4,0.3-2.3v-8.6H316.1z M316.1,348.4c-0.8,0.4-1.6,1.1-2.4,2c-0.7,0.9-1.4,2.5-2,4.8
		c-0.1,0.3-0.2,1.2-0.3,2.5c-0.1,1.3-0.1,3.5-0.1,6.7v0.4c1.1-0.3,2.1-0.5,3-0.7c0.9-0.3,1.6-0.5,2.1-0.8c0.6-0.4,1.2-0.7,1.7-1
		c0.5-0.3,1-0.7,1.5-1.2c0.4-0.4,0.7-1,1-1.6s0.3-1.4,0.3-2.3v-8.6H316.1z M263.1,357.2c-0.1-1-0.2-1.7-0.3-2
		c-0.3-1.1-0.6-2.1-1-2.9c-0.3-0.8-0.7-1.4-1.1-2c-0.4-0.5-0.8-1-1.2-1.3c-0.4-0.3-0.8-0.6-1.2-0.9c-0.8,0.4-1.6,1.1-2.4,2.1
		c-0.7,1-1.4,2.6-2,4.9c-0.3,0.6-0.4,3.1-0.5,7.5v1.7c0,1.5,0,2.8,0,3.8c0,1,0.1,1.8,0.1,2.4c0.1,0.6,0.1,1.1,0.2,1.4
		c0,0.3,0.1,0.6,0.2,0.7c0.6,2.3,1.3,4,2,4.9c0.7,1,1.5,1.7,2.4,2.1c0.8-0.4,1.6-1.1,2.4-2.1c0.8-1,1.5-2.6,2.1-5v-0.2
		c0-0.4,0.1-1.3,0.2-2.9c0.1-1.5,0.2-3.2,0.2-5.1v-1.7C263.3,360.1,263.2,358.2,263.1,357.2z M263.1,357.2c-0.1-1-0.2-1.7-0.3-2
		c-0.3-1.1-0.6-2.1-1-2.9c-0.3-0.8-0.7-1.4-1.1-2c-0.4-0.5-0.8-1-1.2-1.3c-0.4-0.3-0.8-0.6-1.2-0.9c-0.8,0.4-1.6,1.1-2.4,2.1
		c-0.7,1-1.4,2.6-2,4.9c-0.3,0.6-0.4,3.1-0.5,7.5v1.7c0,1.5,0,2.8,0,3.8c0,1,0.1,1.8,0.1,2.4c0.1,0.6,0.1,1.1,0.2,1.4
		c0,0.3,0.1,0.6,0.2,0.7c0.6,2.3,1.3,4,2,4.9c0.7,1,1.5,1.7,2.4,2.1c0.8-0.4,1.6-1.1,2.4-2.1c0.8-1,1.5-2.6,2.1-5v-0.2
		c0-0.4,0.1-1.3,0.2-2.9c0.1-1.5,0.2-3.2,0.2-5.1v-1.7C263.3,360.1,263.2,358.2,263.1,357.2z M316.1,348.4c-0.8,0.4-1.6,1.1-2.4,2
		c-0.7,0.9-1.4,2.5-2,4.8c-0.1,0.3-0.2,1.2-0.3,2.5c-0.1,1.3-0.1,3.5-0.1,6.7v0.4c1.1-0.3,2.1-0.5,3-0.7c0.9-0.3,1.6-0.5,2.1-0.8
		c0.6-0.4,1.2-0.7,1.7-1c0.5-0.3,1-0.7,1.5-1.2c0.4-0.4,0.7-1,1-1.6s0.3-1.4,0.3-2.3v-8.6H316.1z M316.1,348.4
		c-0.8,0.4-1.6,1.1-2.4,2c-0.7,0.9-1.4,2.5-2,4.8c-0.1,0.3-0.2,1.2-0.3,2.5c-0.1,1.3-0.1,3.5-0.1,6.7v0.4c1.1-0.3,2.1-0.5,3-0.7
		c0.9-0.3,1.6-0.5,2.1-0.8c0.6-0.4,1.2-0.7,1.7-1c0.5-0.3,1-0.7,1.5-1.2c0.4-0.4,0.7-1,1-1.6s0.3-1.4,0.3-2.3v-8.6H316.1z
		 M263.1,357.2c-0.1-1-0.2-1.7-0.3-2c-0.3-1.1-0.6-2.1-1-2.9c-0.3-0.8-0.7-1.4-1.1-2c-0.4-0.5-0.8-1-1.2-1.3
		c-0.4-0.3-0.8-0.6-1.2-0.9c-0.8,0.4-1.6,1.1-2.4,2.1c-0.7,1-1.4,2.6-2,4.9c-0.3,0.6-0.4,3.1-0.5,7.5v1.7c0,1.5,0,2.8,0,3.8
		c0,1,0.1,1.8,0.1,2.4c0.1,0.6,0.1,1.1,0.2,1.4c0,0.3,0.1,0.6,0.2,0.7c0.6,2.3,1.3,4,2,4.9c0.7,1,1.5,1.7,2.4,2.1
		c0.8-0.4,1.6-1.1,2.4-2.1c0.8-1,1.5-2.6,2.1-5v-0.2c0-0.4,0.1-1.3,0.2-2.9c0.1-1.5,0.2-3.2,0.2-5.1v-1.7
		C263.3,360.1,263.2,358.2,263.1,357.2z M263.1,357.2c-0.1-1-0.2-1.7-0.3-2c-0.3-1.1-0.6-2.1-1-2.9c-0.3-0.8-0.7-1.4-1.1-2
		c-0.4-0.5-0.8-1-1.2-1.3c-0.4-0.3-0.8-0.6-1.2-0.9c-0.8,0.4-1.6,1.1-2.4,2.1c-0.7,1-1.4,2.6-2,4.9c-0.3,0.6-0.4,3.1-0.5,7.5v1.7
		c0,1.5,0,2.8,0,3.8c0,1,0.1,1.8,0.1,2.4c0.1,0.6,0.1,1.1,0.2,1.4c0,0.3,0.1,0.6,0.2,0.7c0.6,2.3,1.3,4,2,4.9c0.7,1,1.5,1.7,2.4,2.1
		c0.8-0.4,1.6-1.1,2.4-2.1c0.8-1,1.5-2.6,2.1-5v-0.2c0-0.4,0.1-1.3,0.2-2.9c0.1-1.5,0.2-3.2,0.2-5.1v-1.7
		C263.3,360.1,263.2,358.2,263.1,357.2z M316.1,348.4c-0.8,0.4-1.6,1.1-2.4,2c-0.7,0.9-1.4,2.5-2,4.8c-0.1,0.3-0.2,1.2-0.3,2.5
		c-0.1,1.3-0.1,3.5-0.1,6.7v0.4c1.1-0.3,2.1-0.5,3-0.7c0.9-0.3,1.6-0.5,2.1-0.8c0.6-0.4,1.2-0.7,1.7-1c0.5-0.3,1-0.7,1.5-1.2
		c0.4-0.4,0.7-1,1-1.6s0.3-1.4,0.3-2.3v-8.6H316.1z M316.1,348.4c-0.8,0.4-1.6,1.1-2.4,2c-0.7,0.9-1.4,2.5-2,4.8
		c-0.1,0.3-0.2,1.2-0.3,2.5c-0.1,1.3-0.1,3.5-0.1,6.7v0.4c1.1-0.3,2.1-0.5,3-0.7c0.9-0.3,1.6-0.5,2.1-0.8c0.6-0.4,1.2-0.7,1.7-1
		c0.5-0.3,1-0.7,1.5-1.2c0.4-0.4,0.7-1,1-1.6s0.3-1.4,0.3-2.3v-8.6H316.1z M263.1,357.2c-0.1-1-0.2-1.7-0.3-2
		c-0.3-1.1-0.6-2.1-1-2.9c-0.3-0.8-0.7-1.4-1.1-2c-0.4-0.5-0.8-1-1.2-1.3c-0.4-0.3-0.8-0.6-1.2-0.9c-0.8,0.4-1.6,1.1-2.4,2.1
		c-0.7,1-1.4,2.6-2,4.9c-0.3,0.6-0.4,3.1-0.5,7.5v1.7c0,1.5,0,2.8,0,3.8c0,1,0.1,1.8,0.1,2.4c0.1,0.6,0.1,1.1,0.2,1.4
		c0,0.3,0.1,0.6,0.2,0.7c0.6,2.3,1.3,4,2,4.9c0.7,1,1.5,1.7,2.4,2.1c0.8-0.4,1.6-1.1,2.4-2.1c0.8-1,1.5-2.6,2.1-5v-0.2
		c0-0.4,0.1-1.3,0.2-2.9c0.1-1.5,0.2-3.2,0.2-5.1v-1.7C263.3,360.1,263.2,358.2,263.1,357.2z M263.1,357.2c-0.1-1-0.2-1.7-0.3-2
		c-0.3-1.1-0.6-2.1-1-2.9c-0.3-0.8-0.7-1.4-1.1-2c-0.4-0.5-0.8-1-1.2-1.3c-0.4-0.3-0.8-0.6-1.2-0.9c-0.8,0.4-1.6,1.1-2.4,2.1
		c-0.7,1-1.4,2.6-2,4.9c-0.3,0.6-0.4,3.1-0.5,7.5v1.7c0,1.5,0,2.8,0,3.8c0,1,0.1,1.8,0.1,2.4c0.1,0.6,0.1,1.1,0.2,1.4
		c0,0.3,0.1,0.6,0.2,0.7c0.6,2.3,1.3,4,2,4.9c0.7,1,1.5,1.7,2.4,2.1c0.8-0.4,1.6-1.1,2.4-2.1c0.8-1,1.5-2.6,2.1-5v-0.2
		c0-0.4,0.1-1.3,0.2-2.9c0.1-1.5,0.2-3.2,0.2-5.1v-1.7C263.3,360.1,263.2,358.2,263.1,357.2z M316.1,348.4c-0.8,0.4-1.6,1.1-2.4,2
		c-0.7,0.9-1.4,2.5-2,4.8c-0.1,0.3-0.2,1.2-0.3,2.5c-0.1,1.3-0.1,3.5-0.1,6.7v0.4c1.1-0.3,2.1-0.5,3-0.7c0.9-0.3,1.6-0.5,2.1-0.8
		c0.6-0.4,1.2-0.7,1.7-1c0.5-0.3,1-0.7,1.5-1.2c0.4-0.4,0.7-1,1-1.6s0.3-1.4,0.3-2.3v-8.6H316.1z M316.1,348.4
		c-0.8,0.4-1.6,1.1-2.4,2c-0.7,0.9-1.4,2.5-2,4.8c-0.1,0.3-0.2,1.2-0.3,2.5c-0.1,1.3-0.1,3.5-0.1,6.7v0.4c1.1-0.3,2.1-0.5,3-0.7
		c0.9-0.3,1.6-0.5,2.1-0.8c0.6-0.4,1.2-0.7,1.7-1c0.5-0.3,1-0.7,1.5-1.2c0.4-0.4,0.7-1,1-1.6s0.3-1.4,0.3-2.3v-8.6H316.1z
		 M263.1,357.2c-0.1-1-0.2-1.7-0.3-2c-0.3-1.1-0.6-2.1-1-2.9c-0.3-0.8-0.7-1.4-1.1-2c-0.4-0.5-0.8-1-1.2-1.3
		c-0.4-0.3-0.8-0.6-1.2-0.9c-0.8,0.4-1.6,1.1-2.4,2.1c-0.7,1-1.4,2.6-2,4.9c-0.3,0.6-0.4,3.1-0.5,7.5v1.7c0,1.5,0,2.8,0,3.8
		c0,1,0.1,1.8,0.1,2.4c0.1,0.6,0.1,1.1,0.2,1.4c0,0.3,0.1,0.6,0.2,0.7c0.6,2.3,1.3,4,2,4.9c0.7,1,1.5,1.7,2.4,2.1
		c0.8-0.4,1.6-1.1,2.4-2.1c0.8-1,1.5-2.6,2.1-5v-0.2c0-0.4,0.1-1.3,0.2-2.9c0.1-1.5,0.2-3.2,0.2-5.1v-1.7
		C263.3,360.1,263.2,358.2,263.1,357.2z M316.1,348.4c-0.8,0.4-1.6,1.1-2.4,2c-0.7,0.9-1.4,2.5-2,4.8c-0.1,0.3-0.2,1.2-0.3,2.5
		c-0.1,1.3-0.1,3.5-0.1,6.7v0.4c1.1-0.3,2.1-0.5,3-0.7c0.9-0.3,1.6-0.5,2.1-0.8c0.6-0.4,1.2-0.7,1.7-1c0.5-0.3,1-0.7,1.5-1.2
		c0.4-0.4,0.7-1,1-1.6s0.3-1.4,0.3-2.3v-8.6H316.1z M262.8,355.2c-0.3-1.1-0.6-2.1-1-2.9c-0.3-0.8-0.7-1.4-1.1-2
		c-0.4-0.5-0.8-1-1.2-1.3c-0.4-0.3-0.8-0.6-1.2-0.9c-0.8,0.4-1.6,1.1-2.4,2.1c-0.7,1-1.4,2.6-2,4.9c-0.3,0.6-0.4,3.1-0.5,7.5v1.7
		c0,1.5,0,2.8,0,3.8c0,1,0.1,1.8,0.1,2.4c0.1,0.6,0.1,1.1,0.2,1.4c0,0.3,0.1,0.6,0.2,0.7c0.6,2.3,1.3,4,2,4.9c0.7,1,1.5,1.7,2.4,2.1
		c0.8-0.4,1.6-1.1,2.4-2.1c0.8-1,1.5-2.6,2.1-5v-0.2c0-0.4,0.1-1.3,0.2-2.9c0.1-1.5,0.2-3.2,0.2-5.1v-1.7c0-2.7-0.1-4.6-0.2-5.6
		C263,356.1,262.9,355.5,262.8,355.2z M263.1,357.2c-0.1-1-0.2-1.7-0.3-2c-0.3-1.1-0.6-2.1-1-2.9c-0.3-0.8-0.7-1.4-1.1-2
		c-0.4-0.5-0.8-1-1.2-1.3c-0.4-0.3-0.8-0.6-1.2-0.9c-0.8,0.4-1.6,1.1-2.4,2.1c-0.7,1-1.4,2.6-2,4.9c-0.3,0.6-0.4,3.1-0.5,7.5v1.7
		c0,1.5,0,2.8,0,3.8c0,1,0.1,1.8,0.1,2.4c0.1,0.6,0.1,1.1,0.2,1.4c0,0.3,0.1,0.6,0.2,0.7c0.6,2.3,1.3,4,2,4.9c0.7,1,1.5,1.7,2.4,2.1
		c0.8-0.4,1.6-1.1,2.4-2.1c0.8-1,1.5-2.6,2.1-5v-0.2c0-0.4,0.1-1.3,0.2-2.9c0.1-1.5,0.2-3.2,0.2-5.1v-1.7
		C263.3,360.1,263.2,358.2,263.1,357.2z M316.1,348.4c-0.8,0.4-1.6,1.1-2.4,2c-0.7,0.9-1.4,2.5-2,4.8c-0.1,0.3-0.2,1.2-0.3,2.5
		c-0.1,1.3-0.1,3.5-0.1,6.7v0.4c1.1-0.3,2.1-0.5,3-0.7c0.9-0.3,1.6-0.5,2.1-0.8c0.6-0.4,1.2-0.7,1.7-1c0.5-0.3,1-0.7,1.5-1.2
		c0.4-0.4,0.7-1,1-1.6s0.3-1.4,0.3-2.3v-8.6H316.1z M316.1,348.4c-0.8,0.4-1.6,1.1-2.4,2c-0.7,0.9-1.4,2.5-2,4.8
		c-0.1,0.3-0.2,1.2-0.3,2.5c-0.1,1.3-0.1,3.5-0.1,6.7v0.4c1.1-0.3,2.1-0.5,3-0.7c0.9-0.3,1.6-0.5,2.1-0.8c0.6-0.4,1.2-0.7,1.7-1
		c0.5-0.3,1-0.7,1.5-1.2c0.4-0.4,0.7-1,1-1.6s0.3-1.4,0.3-2.3v-8.6H316.1z M263.1,357.2c-0.1-1-0.2-1.7-0.3-2
		c-0.3-1.1-0.6-2.1-1-2.9c-0.3-0.8-0.7-1.4-1.1-2c-0.4-0.5-0.8-1-1.2-1.3c-0.4-0.3-0.8-0.6-1.2-0.9c-0.8,0.4-1.6,1.1-2.4,2.1
		c-0.7,1-1.4,2.6-2,4.9c-0.3,0.6-0.4,3.1-0.5,7.5v1.7c0,1.5,0,2.8,0,3.8c0,1,0.1,1.8,0.1,2.4c0.1,0.6,0.1,1.1,0.2,1.4
		c0,0.3,0.1,0.6,0.2,0.7c0.6,2.3,1.3,4,2,4.9c0.7,1,1.5,1.7,2.4,2.1c0.8-0.4,1.6-1.1,2.4-2.1c0.8-1,1.5-2.6,2.1-5v-0.2
		c0-0.4,0.1-1.3,0.2-2.9c0.1-1.5,0.2-3.2,0.2-5.1v-1.7C263.3,360.1,263.2,358.2,263.1,357.2z M263.1,357.2c-0.1-1-0.2-1.7-0.3-2
		c-0.3-1.1-0.6-2.1-1-2.9c-0.3-0.8-0.7-1.4-1.1-2c-0.4-0.5-0.8-1-1.2-1.3c-0.4-0.3-0.8-0.6-1.2-0.9c-0.8,0.4-1.6,1.1-2.4,2.1
		c-0.7,1-1.4,2.6-2,4.9c-0.3,0.6-0.4,3.1-0.5,7.5v1.7c0,1.5,0,2.8,0,3.8c0,1,0.1,1.8,0.1,2.4c0.1,0.6,0.1,1.1,0.2,1.4
		c0,0.3,0.1,0.6,0.2,0.7c0.6,2.3,1.3,4,2,4.9c0.7,1,1.5,1.7,2.4,2.1c0.8-0.4,1.6-1.1,2.4-2.1c0.8-1,1.5-2.6,2.1-5v-0.2
		c0-0.4,0.1-1.3,0.2-2.9c0.1-1.5,0.2-3.2,0.2-5.1v-1.7C263.3,360.1,263.2,358.2,263.1,357.2z M316.1,348.4c-0.8,0.4-1.6,1.1-2.4,2
		c-0.7,0.9-1.4,2.5-2,4.8c-0.1,0.3-0.2,1.2-0.3,2.5c-0.1,1.3-0.1,3.5-0.1,6.7v0.4c1.1-0.3,2.1-0.5,3-0.7c0.9-0.3,1.6-0.5,2.1-0.8
		c0.6-0.4,1.2-0.7,1.7-1c0.5-0.3,1-0.7,1.5-1.2c0.4-0.4,0.7-1,1-1.6s0.3-1.4,0.3-2.3v-8.6H316.1z M316.1,348.4
		c-0.8,0.4-1.6,1.1-2.4,2c-0.7,0.9-1.4,2.5-2,4.8c-0.1,0.3-0.2,1.2-0.3,2.5c-0.1,1.3-0.1,3.5-0.1,6.7v0.4c1.1-0.3,2.1-0.5,3-0.7
		c0.9-0.3,1.6-0.5,2.1-0.8c0.6-0.4,1.2-0.7,1.7-1c0.5-0.3,1-0.7,1.5-1.2c0.4-0.4,0.7-1,1-1.6s0.3-1.4,0.3-2.3v-8.6H316.1z
		 M263.1,357.2c-0.1-1-0.2-1.7-0.3-2c-0.3-1.1-0.6-2.1-1-2.9c-0.3-0.8-0.7-1.4-1.1-2c-0.4-0.5-0.8-1-1.2-1.3
		c-0.4-0.3-0.8-0.6-1.2-0.9c-0.8,0.4-1.6,1.1-2.4,2.1c-0.7,1-1.4,2.6-2,4.9c-0.3,0.6-0.4,3.1-0.5,7.5v1.7c0,1.5,0,2.8,0,3.8
		c0,1,0.1,1.8,0.1,2.4c0.1,0.6,0.1,1.1,0.2,1.4c0,0.3,0.1,0.6,0.2,0.7c0.6,2.3,1.3,4,2,4.9c0.7,1,1.5,1.7,2.4,2.1
		c0.8-0.4,1.6-1.1,2.4-2.1c0.8-1,1.5-2.6,2.1-5v-0.2c0-0.4,0.1-1.3,0.2-2.9c0.1-1.5,0.2-3.2,0.2-5.1v-1.7
		C263.3,360.1,263.2,358.2,263.1,357.2z M263.1,357.2c-0.1-1-0.2-1.7-0.3-2c-0.3-1.1-0.6-2.1-1-2.9c-0.3-0.8-0.7-1.4-1.1-2
		c-0.4-0.5-0.8-1-1.2-1.3c-0.4-0.3-0.8-0.6-1.2-0.9c-0.8,0.4-1.6,1.1-2.4,2.1c-0.7,1-1.4,2.6-2,4.9c-0.3,0.6-0.4,3.1-0.5,7.5v1.7
		c0,1.5,0,2.8,0,3.8c0,1,0.1,1.8,0.1,2.4c0.1,0.6,0.1,1.1,0.2,1.4c0,0.3,0.1,0.6,0.2,0.7c0.6,2.3,1.3,4,2,4.9c0.7,1,1.5,1.7,2.4,2.1
		c0.8-0.4,1.6-1.1,2.4-2.1c0.8-1,1.5-2.6,2.1-5v-0.2c0-0.4,0.1-1.3,0.2-2.9c0.1-1.5,0.2-3.2,0.2-5.1v-1.7
		C263.3,360.1,263.2,358.2,263.1,357.2z M316.1,348.4c-0.8,0.4-1.6,1.1-2.4,2c-0.7,0.9-1.4,2.5-2,4.8c-0.1,0.3-0.2,1.2-0.3,2.5
		c-0.1,1.3-0.1,3.5-0.1,6.7v0.4c1.1-0.3,2.1-0.5,3-0.7c0.9-0.3,1.6-0.5,2.1-0.8c0.6-0.4,1.2-0.7,1.7-1c0.5-0.3,1-0.7,1.5-1.2
		c0.4-0.4,0.7-1,1-1.6s0.3-1.4,0.3-2.3v-8.6H316.1z M316.1,348.4c-0.8,0.4-1.6,1.1-2.4,2c-0.7,0.9-1.4,2.5-2,4.8
		c-0.1,0.3-0.2,1.2-0.3,2.5c-0.1,1.3-0.1,3.5-0.1,6.7v0.4c1.1-0.3,2.1-0.5,3-0.7c0.9-0.3,1.6-0.5,2.1-0.8c0.6-0.4,1.2-0.7,1.7-1
		c0.5-0.3,1-0.7,1.5-1.2c0.4-0.4,0.7-1,1-1.6s0.3-1.4,0.3-2.3v-8.6H316.1z M263.1,357.2c-0.1-1-0.2-1.7-0.3-2
		c-0.3-1.1-0.6-2.1-1-2.9c-0.3-0.8-0.7-1.4-1.1-2c-0.4-0.5-0.8-1-1.2-1.3c-0.4-0.3-0.8-0.6-1.2-0.9c-0.8,0.4-1.6,1.1-2.4,2.1
		c-0.7,1-1.4,2.6-2,4.9c-0.3,0.6-0.4,3.1-0.5,7.5v1.7c0,1.5,0,2.8,0,3.8c0,1,0.1,1.8,0.1,2.4c0.1,0.6,0.1,1.1,0.2,1.4
		c0,0.3,0.1,0.6,0.2,0.7c0.6,2.3,1.3,4,2,4.9c0.7,1,1.5,1.7,2.4,2.1c0.8-0.4,1.6-1.1,2.4-2.1c0.8-1,1.5-2.6,2.1-5v-0.2
		c0-0.4,0.1-1.3,0.2-2.9c0.1-1.5,0.2-3.2,0.2-5.1v-1.7C263.3,360.1,263.2,358.2,263.1,357.2z M263.1,357.2c-0.1-1-0.2-1.7-0.3-2
		c-0.3-1.1-0.6-2.1-1-2.9c-0.3-0.8-0.7-1.4-1.1-2c-0.4-0.5-0.8-1-1.2-1.3c-0.4-0.3-0.8-0.6-1.2-0.9c-0.8,0.4-1.6,1.1-2.4,2.1
		c-0.7,1-1.4,2.6-2,4.9c-0.3,0.6-0.4,3.1-0.5,7.5v1.7c0,1.5,0,2.8,0,3.8c0,1,0.1,1.8,0.1,2.4c0.1,0.6,0.1,1.1,0.2,1.4
		c0,0.3,0.1,0.6,0.2,0.7c0.6,2.3,1.3,4,2,4.9c0.7,1,1.5,1.7,2.4,2.1c0.8-0.4,1.6-1.1,2.4-2.1c0.8-1,1.5-2.6,2.1-5v-0.2
		c0-0.4,0.1-1.3,0.2-2.9c0.1-1.5,0.2-3.2,0.2-5.1v-1.7C263.3,360.1,263.2,358.2,263.1,357.2z M316.1,348.4c-0.8,0.4-1.6,1.1-2.4,2
		c-0.7,0.9-1.4,2.5-2,4.8c-0.1,0.3-0.2,1.2-0.3,2.5c-0.1,1.3-0.1,3.5-0.1,6.7v0.4c1.1-0.3,2.1-0.5,3-0.7c0.9-0.3,1.6-0.5,2.1-0.8
		c0.6-0.4,1.2-0.7,1.7-1c0.5-0.3,1-0.7,1.5-1.2c0.4-0.4,0.7-1,1-1.6s0.3-1.4,0.3-2.3v-8.6H316.1z M316.1,348.4
		c-0.8,0.4-1.6,1.1-2.4,2c-0.7,0.9-1.4,2.5-2,4.8c-0.1,0.3-0.2,1.2-0.3,2.5c-0.1,1.3-0.1,3.5-0.1,6.7v0.4c1.1-0.3,2.1-0.5,3-0.7
		c0.9-0.3,1.6-0.5,2.1-0.8c0.6-0.4,1.2-0.7,1.7-1c0.5-0.3,1-0.7,1.5-1.2c0.4-0.4,0.7-1,1-1.6s0.3-1.4,0.3-2.3v-8.6H316.1z
		 M263.1,357.2c-0.1-1-0.2-1.7-0.3-2c-0.3-1.1-0.6-2.1-1-2.9c-0.3-0.8-0.7-1.4-1.1-2c-0.4-0.5-0.8-1-1.2-1.3
		c-0.4-0.3-0.8-0.6-1.2-0.9c-0.8,0.4-1.6,1.1-2.4,2.1c-0.7,1-1.4,2.6-2,4.9c-0.3,0.6-0.4,3.1-0.5,7.5v1.7c0,1.5,0,2.8,0,3.8
		c0,1,0.1,1.8,0.1,2.4c0.1,0.6,0.1,1.1,0.2,1.4c0,0.3,0.1,0.6,0.2,0.7c0.6,2.3,1.3,4,2,4.9c0.7,1,1.5,1.7,2.4,2.1
		c0.8-0.4,1.6-1.1,2.4-2.1c0.8-1,1.5-2.6,2.1-5v-0.2c0-0.4,0.1-1.3,0.2-2.9c0.1-1.5,0.2-3.2,0.2-5.1v-1.7
		C263.3,360.1,263.2,358.2,263.1,357.2z"/>
	<path fill="#3F4C5C" d="M313.8,306.6C313.8,306.6,313.8,306.6,313.8,306.6c-0.2,0-0.3-0.1-0.4-0.2
		C313.6,306.4,313.7,306.5,313.8,306.6z"/>
	<path fill="#3F4C5C" d="M313.8,306.6C313.8,306.6,313.8,306.6,313.8,306.6c-0.2,0-0.3-0.1-0.4-0.2
		C313.6,306.4,313.7,306.5,313.8,306.6z"/>
	<path fill="#3F4C5C" d="M336,214.6c0-0.2-0.1-0.3-0.2-0.4h0.1C336,214.4,336,214.5,336,214.6z"/>
	<path fill="#3F4C5C" d="M505.2,232.5c0,0-4,18.6-16.6,39.3c-15.9,26.1-45.5,55.7-98.1,55.8V131c0,0-164.3-11.5-208.6,196.5v0
		c-33.9,0-57.1,0-57.1,0c-11.9,0-22.9,3.6-32,9.8c-15.1,10.3-25.1,27.6-25.1,47.3c0,5.9,0.9,11.6,2.6,16.9
		c7.9-8.5,19.2-13.8,31.7-13.8c11.1,0,21.3,4.2,29,11.1c1.5,1.4,3,2.9,4.3,4.5c0,0.1,0.1,0.1,0.2,0.2c8.5,8.5,17.8,16.3,27.9,23.3
		c34,23.6,76.3,37.6,122.1,37.6c58.6,0,111.5-22.9,148.6-59.5c0.5-0.5,1-1,1.5-1.5c0.1-0.1,0.3-0.2,0.4-0.4c0.2-0.1,0.3-0.3,0.5-0.5
		C514.2,324.3,505.8,238,505.2,232.5z M115.5,369.5c-5.1,0-9.3-4.2-9.3-9.3c0-5.1,4.2-9.3,9.3-9.3c5.1,0,9.3,4.1,9.3,9.3
		C124.8,365.3,120.7,369.5,115.5,369.5z M163.3,384.3h-13.4c-1.5,0-2.7-1.2-2.7-2.7c0-1.5,1.2-2.7,2.7-2.7h13.4
		c1.5,0,2.7,1.2,2.7,2.7C166,383.1,164.8,384.3,163.3,384.3z M163.3,375.2h-13.4c-1.5,0-2.7-1.2-2.7-2.7s1.2-2.7,2.7-2.7h13.4
		c1.5,0,2.7,1.2,2.7,2.7S164.8,375.2,163.3,375.2z M163.3,366h-13.4c-1.5,0-2.7-1.2-2.7-2.7c0-1.5,1.2-2.7,2.7-2.7h13.4
		c1.5,0,2.7,1.2,2.7,2.7C166,364.8,164.8,366,163.3,366z M163.3,356.8h-13.4c-1.5,0-2.7-1.2-2.7-2.7c0-1.5,1.2-2.7,2.7-2.7h13.4
		c1.5,0,2.7,1.2,2.7,2.7C166,355.6,164.8,356.8,163.3,356.8z M163.3,347.7h-13.4c-1.5,0-2.7-1.2-2.7-2.7c0-1.5,1.2-2.7,2.7-2.7h13.4
		c1.5,0,2.7,1.2,2.7,2.7C166,346.5,164.8,347.7,163.3,347.7z M218.8,384.3h-13.3v-20c0-3.1,0-5.3-0.1-6.7c-0.1-1.3-0.2-2.2-0.3-2.5
		c-0.6-2.3-1.3-4-2.1-5c-0.8-1-1.6-1.7-2.4-2.1c-0.8,0.4-1.6,1.1-2.4,2.1c-0.7,1-1.4,2.6-2,4.9c-0.1,0.3-0.2,1.2-0.3,2.5
		c-0.1,1.3-0.2,3.5-0.2,6.7v20h-13.3v-20c0-3.1,0-5.3-0.1-6.7c-0.1-1.3-0.2-2.2-0.3-2.5c-0.3-1.2-0.6-2.2-1-2.9
		c-0.3-0.8-0.7-1.4-1.1-1.9c-0.4-0.5-0.8-0.9-1.2-1.2c-0.4-0.3-0.8-0.6-1.2-0.8v-4.8c2.4,0,4.6,0.2,6.5,0.5s3.7,0.8,5.1,1.5
		c2.9-1.3,6.7-2,11.4-2.2c3,0.1,5.6,0.4,7.9,0.9c2.3,0.5,4.2,1.3,5.7,2.4c1.5,1.1,2.7,2.5,3.4,4.2c0.8,1.7,1.1,3.8,1.1,6.2V384.3z
		 M276.6,370.9c0,2.5-0.4,4.5-1.1,6.2c-0.8,1.7-1.9,3.1-3.4,4.1c-1.5,1.1-3.4,1.9-5.7,2.4c-2.3,0.5-4.9,0.8-7.9,0.9
		c-3-0.1-5.6-0.4-7.9-0.9c-2.3-0.5-4.2-1.3-5.7-2.4c-1.5-1.1-2.7-2.5-3.4-4.1c-0.8-1.7-1.1-3.8-1.1-6.2V357c0-2.4,0.4-4.5,1.1-6.2
		c0.8-1.7,1.9-3.1,3.4-4.2c1.5-1.1,3.4-1.9,5.7-2.4c2.3-0.5,4.9-0.8,7.9-0.9c3,0.1,5.6,0.4,7.9,0.9c2.3,0.5,4.2,1.3,5.7,2.4
		c1.5,1.1,2.7,2.5,3.4,4.2c0.8,1.7,1.1,3.8,1.1,6.2V370.9z M309.8,319.1L309.8,319.1l-0.1,0l-0.2,0.1c-7.7,2.3-15.7,3.5-23.9,3.5
		c-4.7,0-9.4-0.4-14-1.2c-0.3-0.1-0.7-0.3-1-0.4c-0.6-0.2-1.1-0.4-1.7-0.6c8.6-10.4,17.8-14.8,17.9-14.8c0.1-0.1,11.5-8.4,8.4-28.4
		c-2.1-13.3,3.2-27.9,6.6-35.5c0,0,0-0.1,0.1-0.1c1.5-3.4,2.9-5.8,3.3-6.5c3.2,2.3,4.8,8,4.8,8l0.2,0.7l3.2-7.7
		c0.2,2.7,1.3,7.7,1.4,8.4l0,0.2l0.2,0c6.8-0.2,17.5,3.8,18.7,4.3c2.3,7.8,12.3,9.4,13.6,9.6c2.7,5.2,0.3,10.5,0,11.3
		c-7.3,2.6-11.8,6.3-13.5,11c-2.1,5.7,1,11,1,11c0,0,2.6,3.7,5.1,10.3C331.2,310,321,315.6,309.8,319.1z M334.4,384.3h-13.3v-16.8
		c-2.2,0.3-4.7,0.4-7.7,0.4h-2.1v16.3H298V357c0-2.4,0.4-4.5,1.1-6.1c0.8-1.7,1.9-3,3.4-4.1c1.5-1.1,3.4-1.8,5.7-2.3
		s4.9-0.8,7.9-0.9h18.2V384.3z M340.5,302.1c-2.5-6.7-5.1-10.5-5.1-10.5c0,0-3-5.1-1-10.6c1.7-4.6,6.1-8.2,13.3-10.7l0.1,0l0.1-0.1
		c0-0.1,3.1-6.1,0-12l-0.1-0.1l-0.1,0c-0.1,0-11-1.3-13.3-9.4l0-0.1l-0.1,0c-0.1,0-11.4-4.4-18.8-4.4c-0.5-2.4-1.7-8.3-1.3-9.4
		l-0.5-0.2l-3.2,7.7c-0.6-1.6-2.2-5.9-5.1-7.8l-0.2-0.1l-0.1,0.2c0,0-1.5,2.6-3.4,6.7c-0.6-0.8-1-1.3-1-1.3v0
		c-0.8,0.6-1.6,1.2-2.5,1.7c-8.1,4.2-17.3,4.1-17.3,4.1s-10.2,5.9-14.4,9.7l-0.1,2.9c0,0-5.6,7.4-14.4,2c0,0-6,0.5-5.3-7
		c0,0-4-6.5,1.8-11.7c0,0,10.1-7.6,13.4-19.5c0,0,0.8-2.6,0.5-7.4c-0.2-4.4,3.5-5.8,4-5.9c-0.8,0.1-10.2,1.1-6.8-6.1
		c0,0-0.6,5.5,5.1,3.5c0,0,2.1-1,3.4-3.9c1.3-2.9,2.8-3,2.8-3s-2.6,0.2-3.5-2.4c0.2,0.1,3.2,1.4,5-1.1c0,0-3.2-8.9,3.4-16.3
		c0,0,0.8,7.8,10.7,14.4c-0.7-0.8-8.5-11.3,0.6-18.5c0,0,1.7,6.5,8.1,11c6.4,4.5,10.7,16.8,10.7,16.8s1.7-11.8-5.8-20.4
		c0,0,26,4,35.1,32.8c0.1,0.1,0.1,0.3,0.2,0.4c0-0.1,0-0.2,0-0.4c-0.1-2.6-1.1-16.2-12.3-29.2c0,0,23.1,8,28.4,38.6
		c0,0,2.7-0.8,0-20.9c0,0,17.8,17,10.2,41.5c0,0,1.6,0.6,6.4-10.8c0,0,0.1,0.3,0.2,0.8c0,0,0,0,0,0c0.1,1.5,0.1,2.9,0.1,4.4
		C368.3,264.9,357.6,287,340.5,302.1z M397.1,384.3h-13.3v-18c-2.2,0.3-4.7,0.4-7.7,0.4H374v17.6h-13.2V348h-4.9v-4.4H374v19.9
		l0.4-0.1c1-0.3,1.9-0.5,2.7-0.7c0.8-0.2,1.5-0.5,2.1-0.8c1.2-0.7,2.1-1.5,2.8-2.3c0.7-0.9,1.3-2.3,1.8-4.3v-11.7h13.3V384.3z
		 M423.4,384.3h-13.4c-1.5,0-2.7-1.2-2.7-2.7c0-1.5,1.2-2.7,2.7-2.7h13.4c1.5,0,2.7,1.2,2.7,2.7
		C426.1,383.1,424.9,384.3,423.4,384.3z M423.4,375.2h-13.4c-1.5,0-2.7-1.2-2.7-2.7s1.2-2.7,2.7-2.7h13.4c1.5,0,2.7,1.2,2.7,2.7
		S424.9,375.2,423.4,375.2z M423.4,366h-13.4c-1.5,0-2.7-1.2-2.7-2.7c0-1.5,1.2-2.7,2.7-2.7h13.4c1.5,0,2.7,1.2,2.7,2.7
		C426.1,364.8,424.9,366,423.4,366z M423.4,356.8h-13.4c-1.5,0-2.7-1.2-2.7-2.7c0-1.5,1.2-2.7,2.7-2.7h13.4c1.5,0,2.7,1.2,2.7,2.7
		C426.1,355.6,424.9,356.8,423.4,356.8z M423.4,347.7h-13.4c-1.5,0-2.7-1.2-2.7-2.7c0-1.5,1.2-2.7,2.7-2.7h13.4
		c1.5,0,2.7,1.2,2.7,2.7C426.1,346.5,424.9,347.7,423.4,347.7z"/>
</g>
</svg>
